REM MD5 4ff72dfe0390ec499ec8c19e896bfb6b
FILE "Official U.S. PlayStation Magazine Demo Disc 07 (USA).bin" BINARY
  TRACK 01 MODE2/2352
    INDEX 01 00:00:00
  TRACK 02 AUDIO
    INDEX 00 16:28:06
    INDEX 01 16:30:06
  TRACK 03 AUDIO
    INDEX 00 17:20:32
    INDEX 01 17:22:32
  TRACK 04 AUDIO
    INDEX 00 18:01:05
    INDEX 01 18:03:05
REM LEADOUT 18:09:01
